<svg width="36" height="36" viewBox="0 0 36 36" fill="none" xmlns="http://www.w3.org/2000/svg">
<rect width="36" height="36" rx="4" fill="#E6F4FF"/>
<g clip-path="url(#clip0_121251_2389)">
<path d="M12 15.2727C11.7107 15.2727 11.4332 15.3877 11.2286 15.5922C11.024 15.7968 10.9091 16.0743 10.9091 16.3636C10.9091 16.653 11.024 16.9304 11.2286 17.135C11.4332 17.3396 11.7107 17.4545 12 17.4545C12.2893 17.4545 12.5668 17.3396 12.7714 17.135C12.976 16.9304 13.0909 16.653 13.0909 16.3636C13.0909 16.0743 12.976 15.7968 12.7714 15.5922C12.5668 15.3877 12.2893 15.2727 12 15.2727ZM10.9091 24C10.9091 23.7107 11.024 23.4332 11.2286 23.2286C11.4332 23.024 11.7107 22.9091 12 22.9091C12.2893 22.9091 12.5668 23.024 12.7714 23.2286C12.976 23.4332 13.0909 23.7107 13.0909 24C13.0909 24.2893 12.976 24.5668 12.7714 24.7714C12.5668 24.976 12.2893 25.0909 12 25.0909C11.7107 25.0909 11.4332 24.976 11.2286 24.7714C11.024 24.5668 10.9091 24.2893 10.9091 24ZM6 10.0909C6 9.00593 6.43101 7.96539 7.1982 7.1982C7.96539 6.43101 9.00593 6 10.0909 6H25.9091C26.9941 6 28.0346 6.43101 28.8018 7.1982C29.569 7.96539 30 9.00593 30 10.0909V25.9091C30 26.9941 29.569 28.0346 28.8018 28.8018C28.0346 29.569 26.9941 30 25.9091 30H10.0909C9.00593 30 7.96539 29.569 7.1982 28.8018C6.43101 28.0346 6 26.9941 6 25.9091V10.0909ZM9.27273 16.3636C9.27273 17.087 9.56006 17.7806 10.0715 18.2921C10.583 18.8036 11.2767 19.0909 12 19.0909C12.7233 19.0909 13.417 18.8036 13.9285 18.2921C14.4399 17.7806 14.7273 17.087 14.7273 16.3636C14.7273 15.6403 14.4399 14.9466 13.9285 14.4352C13.417 13.9237 12.7233 13.6364 12 13.6364C11.2767 13.6364 10.583 13.9237 10.0715 14.4352C9.56006 14.9466 9.27273 15.6403 9.27273 16.3636ZM12 21.2727C11.2767 21.2727 10.583 21.5601 10.0715 22.0715C9.56006 22.583 9.27273 23.2767 9.27273 24C9.27273 24.7233 9.56006 25.417 10.0715 25.9285C10.583 26.4399 11.2767 26.7273 12 26.7273C12.7233 26.7273 13.417 26.4399 13.9285 25.9285C14.4399 25.417 14.7273 24.7233 14.7273 24C14.7273 23.2767 14.4399 22.583 13.9285 22.0715C13.417 21.5601 12.7233 21.2727 12 21.2727ZM16.9091 16.0909C16.9091 16.5425 17.2756 16.9091 17.7273 16.9091H25.9091C26.1261 16.9091 26.3342 16.8229 26.4876 16.6695C26.6411 16.516 26.7273 16.3079 26.7273 16.0909C26.7273 15.8739 26.6411 15.6658 26.4876 15.5124C26.3342 15.3589 26.1261 15.2727 25.9091 15.2727H17.7273C17.5103 15.2727 17.3022 15.3589 17.1487 15.5124C16.9953 15.6658 16.9091 15.8739 16.9091 16.0909ZM17.7273 22.9091C17.5103 22.9091 17.3022 22.9953 17.1487 23.1487C16.9953 23.3022 16.9091 23.5103 16.9091 23.7273C16.9091 23.9443 16.9953 24.1524 17.1487 24.3058C17.3022 24.4593 17.5103 24.5455 17.7273 24.5455H25.9091C26.1261 24.5455 26.3342 24.4593 26.4876 24.3058C26.6411 24.1524 26.7273 23.9443 26.7273 23.7273C26.7273 23.5103 26.6411 23.3022 26.4876 23.1487C26.3342 22.9953 26.1261 22.9091 25.9091 22.9091H17.7273ZM9.27273 10.0909C9.27273 10.5425 9.63927 10.9091 10.0909 10.9091H25.9091C26.1261 10.9091 26.3342 10.8229 26.4876 10.6695C26.6411 10.516 26.7273 10.3079 26.7273 10.0909C26.7273 9.87391 26.6411 9.66581 26.4876 9.51237C26.3342 9.35893 26.1261 9.27273 25.9091 9.27273H10.0909C9.87391 9.27273 9.66581 9.35893 9.51237 9.51237C9.35893 9.66581 9.27273 9.87391 9.27273 10.0909Z" fill="#1677FF"/>
</g>
<defs>
<clipPath id="clip0_121251_2389">
<rect width="24" height="24" fill="white" transform="translate(6 6)"/>
</clipPath>
</defs>
</svg>
