<svg width="36" height="36" viewBox="0 0 36 36" fill="none" xmlns="http://www.w3.org/2000/svg">
<rect width="36" height="36" rx="4" fill="#FFF1F0"/>
<path d="M27.41 10.91L23.09 6.59C22.9039 6.40283 22.6827 6.25434 22.439 6.15308C22.1953 6.05182 21.9339 5.99979 21.67 6H10C9.46957 6 8.96086 6.21071 8.58579 6.58579C8.21071 6.96086 8 7.46957 8 8V28C8 28.5304 8.21071 29.0391 8.58579 29.4142C8.96086 29.7893 9.46957 30 10 30H26C26.5304 30 27.0391 29.7893 27.4142 29.4142C27.7893 29.0391 28 28.5304 28 28V12.33C28.0002 12.0661 27.9482 11.8047 27.8469 11.561C27.7457 11.3173 27.5972 11.0961 27.41 10.91ZM14.6 10.5C14.8967 10.5 15.1867 10.588 15.4334 10.7528C15.68 10.9176 15.8723 11.1519 15.9858 11.426C16.0994 11.7001 16.1291 12.0017 16.0712 12.2926C16.0133 12.5836 15.8704 12.8509 15.6607 13.0607C15.4509 13.2704 15.1836 13.4133 14.8926 13.4712C14.6017 13.5291 14.3001 13.4994 14.026 13.3858C13.7519 13.2723 13.5176 13.08 13.3528 12.8334C13.188 12.5867 13.1 12.2967 13.1 12C13.1 11.6022 13.258 11.2206 13.5393 10.9393C13.8206 10.658 14.2022 10.5 14.6 10.5ZM13.08 18.74L14.55 16.35C14.7036 16.1686 14.9168 16.0478 15.1513 16.0093C15.3859 15.9708 15.6265 16.0172 15.83 16.14L17.41 17.35C17.4567 17.3958 17.5196 17.4215 17.585 17.4215C17.6504 17.4215 17.7133 17.3958 17.76 17.35L19.27 15.41C19.3631 15.2826 19.485 15.179 19.6258 15.1078C19.7666 15.0365 19.9222 14.9996 20.08 15C20.2327 15.008 20.3815 15.051 20.515 15.1255C20.6484 15.2001 20.7631 15.3042 20.85 15.43L22.3 18.8C22.3333 18.8762 22.347 18.9595 22.3399 19.0424C22.3329 19.1253 22.3053 19.2051 22.2596 19.2746C22.2139 19.3441 22.1516 19.4011 22.0784 19.4405C22.0051 19.4798 21.9232 19.5003 21.84 19.5H13.5C13.4118 19.4988 13.3256 19.4742 13.25 19.4289C13.1744 19.3836 13.1121 19.3191 13.0694 19.2419C13.0268 19.1647 13.0053 19.0777 13.0072 18.9895C13.009 18.9014 13.0341 18.8153 13.08 18.74ZM22.5 26.74H12.5C12.3011 26.74 12.1103 26.661 11.9697 26.5203C11.829 26.3797 11.75 26.1889 11.75 25.99C11.75 25.7911 11.829 25.6003 11.9697 25.4597C12.1103 25.319 12.3011 25.24 12.5 25.24H22.5C22.6989 25.24 22.8897 25.319 23.0303 25.4597C23.171 25.6003 23.25 25.7911 23.25 25.99C23.25 26.1889 23.171 26.3797 23.0303 26.5203C22.8897 26.661 22.6989 26.74 22.5 26.74ZM22.5 23.24H12.5C12.3011 23.24 12.1103 23.161 11.9697 23.0203C11.829 22.8797 11.75 22.6889 11.75 22.49C11.75 22.2911 11.829 22.1003 11.9697 21.9597C12.1103 21.819 12.3011 21.74 12.5 21.74H22.5C22.6989 21.74 22.8897 21.819 23.0303 21.9597C23.171 22.1003 23.25 22.2911 23.25 22.49C23.25 22.6889 23.171 22.8797 23.0303 23.0203C22.8897 23.161 22.6989 23.24 22.5 23.24Z" fill="#F5222D"/>
</svg>
