<svg width="36" height="36" viewBox="0 0 36 36" fill="none" xmlns="http://www.w3.org/2000/svg">
<rect width="36" height="36" rx="4" fill="#F9F0FF"/>
<path d="M26 12C26 9.832 22.337 8 18 8C13.663 8 10 9.832 10 12V14C10 16.168 13.663 18 18 18C22.337 18 26 16.168 26 14V12ZM18 25C13.663 25 10 23.168 10 21V24C10 26.168 13.663 28 18 28C22.337 28 26 26.168 26 24V21C26 23.168 22.337 25 18 25Z" fill="#9A16FF"/>
<path d="M26 16C26 18.168 22.337 20 18 20C13.663 20 10 18.168 10 16V19C10 21.168 13.663 23 18 23C22.337 23 26 21.168 26 19V16Z" fill="#9A16FF"/>
</svg>
