<svg width="36" height="36" viewBox="0 0 36 36" fill="none" xmlns="http://www.w3.org/2000/svg">
<rect width="36" height="36" rx="4" fill="#FFEFFE"/>
<path d="M18.5 12.5C18.5 11.1739 19.0268 9.90215 19.9645 8.96447C20.9021 8.02678 22.1739 7.5 23.5 7.5C24.8261 7.5 26.0979 8.02678 27.0355 8.96447C27.9732 9.90215 28.5 11.1739 28.5 12.5C28.5 13.8261 27.9732 15.0979 27.0355 16.0355C26.0979 16.9732 24.8261 17.5 23.5 17.5C22.1739 17.5 20.9021 16.9732 19.9645 16.0355C19.0268 15.0979 18.5 13.8261 18.5 12.5ZM8 8H17V17H8V8ZM8 19H17V28H8V19ZM19 19H28V28H19V19Z" fill="#FF25EE"/>
</svg>
