<svg width="36" height="36" viewBox="0 0 36 36" fill="none" xmlns="http://www.w3.org/2000/svg">
<rect width="36" height="36" rx="4" fill="#E6F4FF"/>
<g clip-path="url(#clip0_121250_2354)">
<path d="M25.3333 18C24.8029 18 24.2942 17.7893 23.9191 17.4142C23.544 17.0391 23.3333 16.5304 23.3333 16C23.3333 15.4696 23.544 14.9609 23.9191 14.5858C24.2942 14.2107 24.8029 14 25.3333 14C25.8638 14 26.3725 14.2107 26.7475 14.5858C27.1226 14.9609 27.3333 15.4696 27.3333 16C27.3333 16.5304 27.1226 17.0391 26.7475 17.4142C26.3725 17.7893 25.8638 18 25.3333 18ZM21.3333 12.6667C20.8029 12.6667 20.2942 12.456 19.9191 12.0809C19.544 11.7058 19.3333 11.1971 19.3333 10.6667C19.3333 10.1362 19.544 9.62753 19.9191 9.25245C20.2942 8.87738 20.8029 8.66667 21.3333 8.66667C21.8638 8.66667 22.3725 8.87738 22.7475 9.25245C23.1226 9.62753 23.3333 10.1362 23.3333 10.6667C23.3333 11.1971 23.1226 11.7058 22.7475 12.0809C22.3725 12.456 21.8638 12.6667 21.3333 12.6667ZM14.6667 12.6667C14.1362 12.6667 13.6275 12.456 13.2525 12.0809C12.8774 11.7058 12.6667 11.1971 12.6667 10.6667C12.6667 10.1362 12.8774 9.62753 13.2525 9.25245C13.6275 8.87738 14.1362 8.66667 14.6667 8.66667C15.1971 8.66667 15.7058 8.87738 16.0809 9.25245C16.456 9.62753 16.6667 10.1362 16.6667 10.6667C16.6667 11.1971 16.456 11.7058 16.0809 12.0809C15.7058 12.456 15.1971 12.6667 14.6667 12.6667ZM10.6667 18C10.1362 18 9.62753 17.7893 9.25245 17.4142C8.87738 17.0391 8.66667 16.5304 8.66667 16C8.66667 15.4696 8.87738 14.9609 9.25245 14.5858C9.62753 14.2107 10.1362 14 10.6667 14C11.1971 14 11.7058 14.2107 12.0809 14.5858C12.456 14.9609 12.6667 15.4696 12.6667 16C12.6667 16.5304 12.456 17.0391 12.0809 17.4142C11.7058 17.7893 11.1971 18 10.6667 18ZM18 6C14.8174 6 11.7652 7.26428 9.51472 9.51472C7.26428 11.7652 6 14.8174 6 18C6 21.1826 7.26428 24.2348 9.51472 26.4853C11.7652 28.7357 14.8174 30 18 30C18.5304 30 19.0391 29.7893 19.4142 29.4142C19.7893 29.0391 20 28.5304 20 28C20 27.48 19.8 27.0133 19.48 26.6667C19.1733 26.3067 18.9733 25.84 18.9733 25.3333C18.9733 24.8029 19.184 24.2942 19.5591 23.9191C19.9342 23.544 20.4429 23.3333 20.9733 23.3333H23.3333C25.1014 23.3333 26.7971 22.631 28.0474 21.3807C29.2976 20.1305 30 18.4348 30 16.6667C30 10.7733 24.6267 6 18 6Z" fill="#1677FF"/>
</g>
<defs>
<clipPath id="clip0_121250_2354">
<rect width="24" height="24" fill="white" transform="translate(6 6)"/>
</clipPath>
</defs>
</svg>
