<svg width="36" height="36" viewBox="0 0 36 36" fill="none" xmlns="http://www.w3.org/2000/svg">
<rect width="36" height="36" rx="4" fill="#F6FFED"/>
<path d="M18 23C18.5304 23 19.0391 22.7893 19.4142 22.4142C19.7893 22.0391 20 21.5304 20 21C20 20.4696 19.7893 19.9609 19.4142 19.5858C19.0391 19.2107 18.5304 19 18 19C17.4696 19 16.9609 19.2107 16.5858 19.5858C16.2107 19.9609 16 20.4696 16 21C16 21.5304 16.2107 22.0391 16.5858 22.4142C16.9609 22.7893 17.4696 23 18 23ZM24 14C24.5304 14 25.0391 14.2107 25.4142 14.5858C25.7893 14.9609 26 15.4696 26 16V26C26 26.5304 25.7893 27.0391 25.4142 27.4142C25.0391 27.7893 24.5304 28 24 28H12C11.4696 28 10.9609 27.7893 10.5858 27.4142C10.2107 27.0391 10 26.5304 10 26V16C10 15.4696 10.2107 14.9609 10.5858 14.5858C10.9609 14.2107 11.4696 14 12 14H13V12C13 10.6739 13.5268 9.40215 14.4645 8.46447C15.4021 7.52678 16.6739 7 18 7C18.6566 7 19.3068 7.12933 19.9134 7.3806C20.52 7.63188 21.0712 8.00017 21.5355 8.46447C21.9998 8.92876 22.3681 9.47995 22.6194 10.0866C22.8707 10.6932 23 11.3434 23 12V14H24ZM18 9C17.2044 9 16.4413 9.31607 15.8787 9.87868C15.3161 10.4413 15 11.2044 15 12V14H21V12C21 11.2044 20.6839 10.4413 20.1213 9.87868C19.5587 9.31607 18.7956 9 18 9Z" fill="#52C41A"/>
</svg>
