<svg width="36" height="36" viewBox="0 0 36 36" fill="none" xmlns="http://www.w3.org/2000/svg">
<rect width="36" height="36" rx="4" fill="#FFFBE6"/>
<g clip-path="url(#clip0_121251_2393)">
<path fill-rule="evenodd" clip-rule="evenodd" d="M22.6645 7.12638C22.9833 5.67609 25.0473 5.66752 25.3765 7.11438L25.3936 7.18295L25.4245 7.32009C25.6146 8.13297 26.0398 8.87189 26.647 9.44471C27.2543 10.0175 28.0168 10.3989 28.8393 10.5412C30.3496 10.8035 30.3496 12.9755 28.8393 13.2378C28.0122 13.3807 27.2458 13.7654 26.6369 14.3432C26.028 14.921 25.6037 15.6661 25.4176 16.4847L25.3765 16.6647C25.0473 18.1115 22.9833 18.1029 22.6645 16.6527L22.6302 16.4984C22.2633 14.8184 20.9159 13.5292 19.2239 13.2344C17.7153 12.9721 17.7153 10.8052 19.2239 10.5429C20.0486 10.3992 20.8122 10.0142 21.4182 9.43657C22.0242 8.85896 22.4454 8.11469 22.6285 7.29781L22.6542 7.18466L22.6645 7.12638ZM9.02734 10.2515H16.5531C15.5759 12.0515 16.3559 14.7087 18.8913 15.1492C19.7245 15.2949 20.4033 15.8864 20.6673 16.6801H8.59877V26.9658C8.59877 27.2024 8.79077 27.3944 9.02734 27.3944H24.4559C24.5696 27.3944 24.6786 27.3492 24.759 27.2689C24.8393 27.1885 24.8845 27.0795 24.8845 26.9658V19.5824C25.9885 19.3029 26.9588 18.4749 27.2742 17.0967L27.3153 16.9149C27.3496 16.7664 27.3965 16.6252 27.4559 16.4915V26.9658C27.4559 27.7615 27.1398 28.5245 26.5772 29.0871C26.0146 29.6497 25.2516 29.9658 24.4559 29.9658H9.02734C8.23169 29.9658 7.46863 29.6497 6.90602 29.0871C6.34341 28.5245 6.02734 27.7615 6.02734 26.9658V13.2515C6.02734 11.5938 7.37134 10.2515 9.02734 10.2515ZM10.6782 18.5418C10.7777 18.4423 10.8958 18.3633 11.0258 18.3095C11.1558 18.2556 11.2952 18.2279 11.4359 18.2279C11.5766 18.2279 11.716 18.2556 11.846 18.3095C11.976 18.3633 12.0941 18.4423 12.1936 18.5418L14.7651 21.1132C14.8646 21.2127 14.9435 21.3309 14.9974 21.4609C15.0513 21.5909 15.079 21.7302 15.079 21.871C15.079 22.0117 15.0513 22.151 14.9974 22.281C14.9435 22.411 14.8646 22.5292 14.7651 22.6287L12.1936 25.2001C12.0941 25.2996 11.976 25.3785 11.846 25.4324C11.716 25.4862 11.5766 25.5139 11.4359 25.5139C11.2952 25.5139 11.1559 25.4862 11.0258 25.4324C10.8958 25.3785 10.7777 25.2996 10.6782 25.2001C10.5787 25.1006 10.4998 24.9825 10.4459 24.8524C10.3921 24.7224 10.3643 24.5831 10.3643 24.4424C10.3643 24.3017 10.3921 24.1623 10.4459 24.0323C10.4998 23.9023 10.5787 23.7842 10.6782 23.6847L12.4919 21.8744L10.6799 20.0589C10.5804 19.9595 10.5014 19.8413 10.4476 19.7113C10.3937 19.5813 10.366 19.442 10.366 19.3012C10.366 19.1605 10.3937 19.0212 10.4476 18.8912C10.5014 18.7611 10.5804 18.643 10.6799 18.5435M15.5091 24.4441C15.5091 23.8527 15.9891 23.3727 16.5805 23.3727H19.1519C19.4361 23.3727 19.7086 23.4855 19.9095 23.6865C20.1105 23.8874 20.2233 24.1599 20.2233 24.4441C20.2233 24.7283 20.1105 25.0008 19.9095 25.2017C19.7086 25.4026 19.4361 25.5155 19.1519 25.5155H16.5805C16.2963 25.5155 16.0238 25.4026 15.8229 25.2017C15.6219 25.0008 15.5091 24.7283 15.5091 24.4441Z" fill="#FAAD14"/>
</g>
<defs>
<clipPath id="clip0_121251_2393">
<rect width="24" height="24" fill="white" transform="translate(6 6)"/>
</clipPath>
</defs>
</svg>
