<svg width="48" height="48" viewBox="0 0 48 48" fill="none" xmlns="http://www.w3.org/2000/svg">
<path d="M17.2023 10.1915C18.17 10.1916 18.9547 10.9756 18.9547 11.9426C18.9546 12.9095 18.17 13.6935 17.2023 13.6936H5.18582C4.74002 13.6936 4.31191 13.8701 3.99669 14.1851C3.6815 14.5001 3.5048 14.9279 3.5048 15.3733V18.7679H24.0691C25.0367 18.7681 25.8214 19.5521 25.8215 20.519C25.8215 21.4858 25.0367 22.2698 24.0691 22.27H3.5048V42.8183C3.50491 43.2635 3.68173 43.6907 3.99669 44.0055C4.31191 44.3205 4.74005 44.498 5.18582 44.498H36.0856C36.5312 44.4979 36.9586 44.3204 37.2737 44.0055C37.5888 43.6906 37.7655 43.2636 37.7656 42.8183V29.0953C37.7658 28.1285 38.5505 27.3445 39.518 27.3443C40.4858 27.3443 41.2703 28.1284 41.2704 29.0953V42.8183C41.2703 44.1924 40.7241 45.51 39.7517 46.4816C38.7793 47.4532 37.4607 48 36.0856 48.0001H5.18582C3.81052 48.0001 2.49118 47.4533 1.51868 46.4816C0.546449 45.51 0.000106714 44.1923 0 42.8183V15.3733C0 13.9991 0.546218 12.6808 1.51868 11.709C2.49119 10.7373 3.81049 10.1915 5.18582 10.1915H17.2023ZM9.09645 26.1424C9.7808 25.4586 10.8901 25.4586 11.5745 26.1424L16.7241 31.288C17.0527 31.6164 17.2375 32.0617 17.2375 32.5261C17.2375 32.9905 17.0527 33.4357 16.7241 33.7641L11.5745 38.9097C10.8901 39.5935 9.78079 39.5935 9.09645 38.9097C8.41227 38.2259 8.4122 37.1174 9.09645 36.4337L13.0071 32.5261L9.09645 28.6185C8.41216 27.9347 8.41226 26.8262 9.09645 26.1424ZM25.7853 35.9207C26.753 35.9207 27.5376 36.7048 27.5377 37.6717C27.5377 38.6387 26.7531 39.4227 25.7853 39.4227H20.6357C19.6679 39.4227 18.8833 38.6387 18.8833 37.6717C18.8835 36.7048 19.668 35.9207 20.6357 35.9207H25.7853ZM32.5035 2.26986C33.1489 -0.63623 37.1918 -0.769083 38.0776 1.97085L38.1529 2.24543L38.1568 2.26008L38.2428 2.64801C38.6471 4.4125 39.5631 6.01887 40.8773 7.265C42.1941 8.51362 43.852 9.34455 45.6407 9.65411C48.8021 10.2018 48.7691 14.7157 45.6456 15.2658L45.6407 15.2668C43.852 15.5764 42.1941 16.4073 40.8773 17.6559C39.5605 18.9045 38.6429 20.515 38.2399 22.2837L38.238 22.2905L38.1499 22.6677L38.1509 22.6687C37.4631 25.6784 33.167 25.661 32.5055 22.6433V22.6423L32.4341 22.3208V22.3188C32.0438 20.5444 31.1335 18.926 29.8202 17.6696C28.5068 16.4132 26.8489 15.5753 25.0578 15.2629C24.9905 15.2512 24.9252 15.2339 24.8612 15.215C21.9242 14.5173 21.9892 10.1972 25.0578 9.66193L25.3922 9.59744C27.055 9.2434 28.5889 8.43311 29.8202 7.25523C31.1335 5.99881 32.0438 4.38044 32.4341 2.60599L32.4977 2.29526L32.5035 2.26986ZM35.3355 5.1065C34.67 6.8699 33.6178 8.47112 32.2444 9.78505C31.0199 10.9564 29.5781 11.8628 28.0101 12.4624C29.578 13.0621 31.02 13.9684 32.2444 15.1398C33.6171 16.4531 34.669 18.0531 35.3346 19.8154C36.0093 18.041 37.076 16.4323 38.4648 15.1154C39.6901 13.9536 41.1295 13.0549 42.6933 12.4605C41.1295 11.866 39.6901 10.9674 38.4648 9.80557C37.0762 8.48891 36.0103 6.88049 35.3355 5.1065Z" fill="#13C2C2"/>
</svg>
